<?xml version="1.0" standalone="no"?>
<!DOCTYPE svg PUBLIC "-//W3C//DTD SVG 20010904//EN"
 "http://www.w3.org/TR/2001/REC-SVG-20010904/DTD/svg10.dtd">
<svg version="1.0" xmlns="http://www.w3.org/2000/svg"
 width="1002.000000pt" height="1002.000000pt" viewBox="0 0 1002.000000 1002.000000"
 preserveAspectRatio="xMidYMid meet">

<g transform="translate(0.000000,1002.000000) scale(0.100000,-0.100000)"
fill="#000000" stroke="none">
<path d="M4346 7108 c21 -98 241 -557 331 -690 70 -105 268 -332 397 -455 91
-88 298 -263 310 -263 3 0 6 78 6 173 l-1 172 -46 35 c-70 52 -316 299 -428
430 -124 144 -259 326 -337 453 -89 144 -127 177 -204 177 -35 0 -35 -1 -28
-32z"/>
<path d="M5210 6345 c13 -14 39 -35 56 -45 67 -42 364 -97 606 -113 l67 -5
-21 29 -22 29 -115 -1 c-177 -2 -385 39 -536 106 l-60 27 25 -27z"/>
<path d="M8214 6332 c-51 -47 -67 -59 -142 -112 -34 -24 -60 -46 -58 -48 11
-10 342 102 364 123 5 5 -101 75 -113 75 -5 0 -28 -17 -51 -38z"/>
<path d="M8331 6254 c-86 -39 -188 -73 -309 -105 -62 -16 -136 -40 -165 -53
-29 -14 -65 -28 -80 -32 -31 -7 -31 -12 8 -73 25 -40 26 -41 84 -41 198 0 497
95 631 201 l25 20 -59 54 c-33 30 -64 55 -70 54 -6 0 -35 -11 -65 -25z"/>
<path d="M5332 6232 c13 -13 52 -48 88 -77 52 -43 81 -58 140 -74 103 -29 280
-51 406 -51 l105 0 -47 61 c-26 33 -52 63 -57 66 -6 3 -71 10 -147 14 -143 9
-314 35 -438 67 l-72 19 22 -25z"/>
<path d="M8485 6118 c-123 -92 -362 -170 -572 -185 -90 -6 -91 -6 -90 -31 2
-22 -3 -27 -38 -34 -22 -5 -82 -8 -133 -6 -50 2 -92 1 -92 -2 0 -2 10 -28 22
-57 l22 -53 70 -1 c39 -1 89 -3 111 -4 120 -6 255 27 420 101 270 123 370 208
339 288 -8 21 -12 20 -59 -16z"/>
<path d="M5604 6026 c117 -69 315 -117 656 -160 274 -35 313 -37 304 -17 -3 9
-11 28 -16 44 -7 18 -17 27 -31 27 -70 1 -288 21 -339 31 -42 8 -64 18 -74 34
-13 21 -24 22 -177 28 -141 5 -236 17 -352 42 -23 5 -15 -2 29 -29z"/>
<path d="M5410 5666 l-1 -353 42 -7 c23 -4 43 -5 44 -4 2 2 4 151 6 333 4 308
3 330 -13 333 -17 3 -18 -17 -18 -312 0 -204 -4 -316 -10 -316 -6 0 -10 116
-10 328 0 321 -3 352 -31 352 -4 0 -8 -159 -9 -354z"/>
<path d="M5522 5634 l-2 -321 25 -23 c19 -18 25 -20 25 -8 0 9 8 26 19 39 14
18 17 30 10 54 -15 50 -60 367 -68 477 -6 78 -8 25 -9 -218z"/>
<path d="M5557 5909 c11 -19 23 -41 26 -49 3 -8 6 -1 6 16 1 24 -6 36 -26 49
l-26 18 20 -34z"/>
<path d="M6626 5887 c20 -66 16 -63 131 -81 223 -33 374 -47 571 -53 111 -3
202 -3 202 0 0 4 -12 31 -26 60 l-27 54 -256 7 c-247 6 -516 21 -574 31 -25 4
-28 3 -21 -18z"/>
<path d="M5610 5866 c0 -111 76 -502 130 -671 34 -104 112 -276 134 -295 19
-15 24 65 32 521 l7 386 -86 21 c-47 12 -115 33 -151 46 l-66 24 0 -32z"/>
<path d="M6589 5838 c10 -29 21 -75 25 -101 8 -53 29 -60 33 -11 4 43 -38 158
-59 162 -16 3 -16 0 1 -50z"/>
<path d="M7516 5862 c-3 -6 4 -32 15 -59 12 -26 32 -79 44 -118 25 -76 52
-103 42 -42 -6 39 -71 205 -86 220 -5 5 -11 5 -15 -1z"/>
<path d="M6062 5841 c-29 -24 -28 -27 11 -35 33 -7 504 -76 517 -76 12 0 -7
72 -22 81 -7 5 -35 9 -63 9 -27 0 -117 9 -200 20 -188 25 -216 25 -243 1z"/>
<path d="M5930 5756 c0 -39 -9 -474 -25 -1146 -5 -240 -5 -245 13 -221 17 22
19 55 25 440 4 229 10 541 14 694 6 254 5 277 -10 277 -13 0 -17 -10 -17 -44z"/>
<path d="M5980 5735 c0 -34 -3 -149 -7 -256 l-6 -194 26 -12 27 -13 0 213 c0
116 3 235 6 263 6 49 5 51 -20 56 -26 5 -26 5 -26 -57z"/>
<path d="M6664 5778 c3 -13 6 -32 6 -44 0 -18 10 -21 103 -33 380 -48 797 -82
797 -65 0 5 -21 27 -48 50 l-47 41 -170 6 c-157 5 -445 34 -574 57 -73 13 -74
13 -67 -12z"/>
<path d="M6037 5156 c-4 -346 -5 -631 -2 -634 20 -20 25 97 25 609 l0 559 206
0 206 0 -4 -465 c-1 -256 0 -465 3 -465 13 0 36 960 23 960 -5 1 -108 15 -230
33 l-221 32 -6 -629z"/>
<path d="M6516 5493 c-12 -417 -15 -638 -10 -621 5 16 7 16 29 2 l23 -15 6
273 c12 538 12 578 -1 578 -6 0 -18 2 -26 6 -12 4 -15 -30 -21 -223z"/>
<path d="M6591 5683 l-1 -33 85 0 c66 0 85 3 85 14 0 8 -7 17 -16 20 -25 10
-82 7 -89 -4 -11 -18 -42 -11 -53 13 -10 21 -11 20 -11 -10z"/>
<path d="M6780 5667 c0 -10 18 -16 61 -21 68 -7 225 -8 218 -2 -2 2 -53 9
-114 15 -60 6 -122 14 -137 17 -20 4 -28 2 -28 -9z"/>
<path d="M6590 5605 c0 -25 1 -25 85 -25 84 0 85 0 85 25 0 25 -1 25 -85 25
-84 0 -85 0 -85 -25z"/>
<path d="M6780 5605 l0 -25 140 0 c130 0 140 1 140 19 0 25 -35 31 -171 31
l-109 0 0 -25z"/>
<path d="M7240 5160 c0 -431 1 -470 17 -470 14 0 15 14 10 137 -4 75 -7 286
-7 470 0 215 -4 333 -10 333 -7 0 -10 -163 -10 -470z"/>
<path d="M7080 5600 c0 -18 7 -20 70 -20 63 0 70 2 70 20 0 18 -7 20 -70 20
-63 0 -70 -2 -70 -20z"/>
<path d="M7280 5151 l0 -469 34 -21 c18 -12 36 -21 40 -21 3 0 6 221 6 490 l0
490 -40 0 -40 0 0 -469z"/>
<path d="M7382 5115 c2 -388 6 -499 16 -503 9 -3 12 97 12 477 l0 481 140 0
140 0 0 -619 c0 -504 2 -621 13 -630 11 -9 15 62 20 417 4 235 7 527 7 650 l0
222 -37 0 c-21 0 -46 -7 -57 -15 -15 -11 -23 -12 -40 -3 -11 6 -65 13 -118 16
l-98 5 2 -498z"/>
<path d="M7747 5293 c-4 -174 -7 -396 -7 -494 l0 -177 34 -4 34 -4 6 181 c3
99 8 323 11 498 l6 317 -39 0 -39 0 -6 -317z"/>
<path d="M6590 5535 c0 -25 1 -25 85 -25 84 0 85 0 85 25 0 25 -1 25 -85 25
-84 0 -85 0 -85 -25z"/>
<path d="M6780 5535 l0 -25 140 0 140 0 0 25 0 25 -140 0 -140 0 0 -25z"/>
<path d="M7080 5535 c0 -24 2 -25 70 -25 68 0 70 1 70 25 0 24 -2 25 -70 25
-68 0 -70 -1 -70 -25z"/>
<path d="M6590 5460 l0 -30 85 0 85 0 0 30 0 30 -85 0 -85 0 0 -30z"/>
<path d="M6780 5460 l0 -30 140 0 140 0 0 30 0 30 -140 0 -140 0 0 -30z"/>
<path d="M7080 5460 l0 -30 70 0 70 0 0 30 0 30 -70 0 -70 0 0 -30z"/>
<path d="M6590 5380 l0 -30 85 0 85 0 0 30 0 30 -85 0 -85 0 0 -30z"/>
<path d="M6780 5380 l0 -30 140 0 140 0 0 30 0 30 -140 0 -140 0 0 -30z"/>
<path d="M7080 5380 l0 -30 70 0 70 0 0 30 0 30 -70 0 -70 0 0 -30z"/>
<path d="M6590 5300 l0 -30 85 0 85 0 0 30 0 30 -85 0 -85 0 0 -30z"/>
<path d="M6780 5300 l0 -30 140 0 140 0 0 30 0 30 -140 0 -140 0 0 -30z"/>
<path d="M7080 5300 l0 -30 70 0 70 0 0 30 0 30 -70 0 -70 0 0 -30z"/>
<path d="M6584 5251 c-2 -2 -4 -17 -4 -33 l0 -28 90 0 90 0 0 29 0 30 -86 3
c-47 2 -88 1 -90 -1z"/>
<path d="M6780 5220 l0 -30 140 0 140 0 0 30 0 30 -140 0 -140 0 0 -30z"/>
<path d="M7080 5220 l0 -30 70 0 70 0 0 30 0 30 -70 0 -70 0 0 -30z"/>
<path d="M5460 5195 l-23 -25 31 0 c33 0 35 3 23 33 -6 16 -9 16 -31 -8z"/>
<path d="M6580 5145 c0 -25 1 -25 90 -25 89 0 90 0 90 25 0 25 -1 25 -90 25
-89 0 -90 0 -90 -25z"/>
<path d="M6780 5145 l0 -25 140 0 140 0 0 25 0 25 -140 0 -140 0 0 -25z"/>
<path d="M7080 5145 c0 -24 2 -25 70 -25 68 0 70 1 70 25 0 24 -2 25 -70 25
-68 0 -70 -1 -70 -25z"/>
<path d="M5640 5150 c0 -6 -18 -30 -41 -54 l-40 -44 48 -28 c26 -14 59 -34 73
-43 14 -10 30 -21 37 -25 7 -4 -4 41 -24 99 -20 58 -40 105 -45 105 -4 0 -8
-5 -8 -10z"/>
<path d="M5192 5085 c-16 -35 -14 -124 3 -155 14 -24 14 -22 15 32 0 31 4 67
9 80 6 16 5 32 -3 46 l-12 23 -12 -26z"/>
<path d="M5357 5092 c-20 -22 -21 -36 -6 -64 11 -20 12 -20 25 11 8 18 10 40
6 52 -8 20 -8 20 -25 1z"/>
<path d="M5477 5085 c-15 -13 -27 -30 -27 -38 0 -26 41 -67 66 -67 21 0 24 5
24 34 0 19 -4 38 -10 41 -5 3 -10 15 -10 25 0 29 -13 30 -43 5z"/>
<path d="M6580 5064 c0 -29 3 -35 16 -30 9 3 49 6 90 6 l74 0 0 30 0 30 -90 0
-90 0 0 -36z"/>
<path d="M6780 5069 l0 -32 53 7 c28 3 91 6 140 6 86 0 87 0 87 25 l0 25 -140
0 -140 0 0 -31z"/>
<path d="M7080 5075 c0 -22 5 -25 33 -25 17 0 49 -3 70 -6 36 -6 37 -6 37 25
l0 31 -70 0 c-68 0 -70 -1 -70 -25z"/>
<path d="M6787 5023 c-4 -3 -7 -17 -7 -30 l0 -23 140 0 140 0 0 30 0 30 -133
0 c-74 0 -137 -3 -140 -7z"/>
<path d="M7080 5000 l0 -30 71 0 70 0 -3 28 c-3 26 -5 27 -70 30 l-68 3 0 -31z"/>
<path d="M6580 4995 c0 -25 0 -25 95 -25 95 0 95 0 95 25 0 25 0 25 -95 25
-95 0 -95 0 -95 -25z"/>
<path d="M1915 4955 c-115 -30 -154 -47 -240 -102 -69 -45 -187 -152 -226
-205 l-20 -27 42 -38 c53 -48 65 -78 44 -110 -17 -25 -13 -43 11 -43 8 0 14
10 14 25 0 14 7 28 15 31 8 4 15 18 15 34 0 15 17 61 37 101 121 244 432 369
623 251 37 -23 51 -27 73 -19 l27 9 -22 18 c-13 9 -61 36 -108 59 -101 49
-149 52 -285 16z"/>
<path d="M7093 4953 c-7 -2 -13 -16 -13 -29 0 -23 3 -24 70 -24 l70 0 0 30 c0
30 0 30 -57 29 -32 0 -64 -3 -70 -6z"/>
<path d="M6580 4925 c0 -25 1 -25 90 -25 89 0 90 0 90 25 0 25 -1 25 -90 25
-89 0 -90 0 -90 -25z"/>
<path d="M6780 4925 l0 -25 140 0 140 0 0 25 0 25 -140 0 -140 0 0 -25z"/>
<path d="M1953 4885 c-142 -35 -273 -145 -343 -290 -31 -63 -30 -133 3 -160
48 -40 91 -57 152 -59 70 -3 142 -34 190 -81 38 -39 81 -111 90 -151 4 -19 -6
-7 -29 36 -64 115 -132 167 -232 177 -55 6 -68 -3 -40 -26 23 -19 58 -111 55
-146 -2 -18 2 -39 8 -46 24 -31 52 -98 64 -155 10 -50 9 -66 -5 -107 -9 -26
-16 -55 -16 -63 0 -48 114 -134 177 -134 22 0 52 14 95 45 35 24 82 57 106 72
43 28 43 28 38 78 -4 46 -10 56 -69 116 -50 50 -69 77 -80 116 -8 28 -22 64
-31 81 -9 17 -16 38 -16 47 0 9 -14 28 -30 42 -36 30 -64 79 -51 88 5 3 12 1
16 -5 3 -5 15 -15 25 -20 18 -9 19 -8 14 19 -4 16 -1 31 5 35 6 4 11 24 11 46
0 29 -8 48 -35 80 -35 42 -35 42 -18 72 19 30 139 151 207 205 24 19 35 36 31
43 -4 7 -31 23 -59 36 -58 27 -145 31 -233 9z m37 -986 c17 -33 29 -63 26 -66
-6 -6 -81 143 -90 180 -4 15 -4 33 0 39 4 6 13 -12 20 -40 8 -28 27 -79 44
-113z m194 20 c-9 -18 -19 -61 -24 -98 -8 -69 -13 -59 -10 19 2 47 26 110 41
110 5 0 2 -14 -7 -31z m-265 -56 c8 -20 36 -61 64 -90 27 -29 45 -53 38 -53
-28 0 -131 133 -131 170 0 23 17 8 29 -27z"/>
<path d="M6582 4858 c3 -22 9 -23 87 -26 87 -3 106 3 95 31 -5 14 -21 17 -96
17 -87 0 -89 -1 -86 -22z"/>
<path d="M6780 4855 l0 -25 140 0 140 0 0 25 0 25 -140 0 -140 0 0 -25z"/>
<path d="M7080 4855 c0 -24 2 -25 70 -25 68 0 70 1 70 25 0 24 -2 25 -70 25
-68 0 -70 -1 -70 -25z"/>
<path d="M2317 4840 c-16 -5 -54 -28 -85 -51 -69 -52 -222 -205 -222 -223 0
-7 14 -25 31 -42 30 -29 30 -30 27 -116 -4 -84 -4 -87 20 -98 22 -10 24 -9 19
12 -20 84 -19 94 16 164 44 85 137 188 208 231 143 85 327 82 517 -8 135 -65
226 -179 308 -386 16 -40 34 -73 40 -73 5 0 19 6 30 14 19 14 19 15 0 88 -34
133 -58 173 -184 296 -130 126 -195 165 -302 181 -95 14 -390 22 -423 11z"/>
<path d="M6818 4803 c12 -2 32 -2 45 0 12 2 2 4 -23 4 -25 0 -35 -2 -22 -4z"/>
<path d="M7028 4803 c6 -2 18 -2 25 0 6 3 1 5 -13 5 -14 0 -19 -2 -12 -5z"/>
<path d="M7090 4802 c0 -11 69 -32 104 -32 19 0 26 5 26 20 0 18 -7 20 -65 20
-36 0 -65 -4 -65 -8z"/>
<path d="M6642 4756 c-119 -23 -211 -55 -314 -108 -280 -146 -477 -400 -565
-728 -31 -117 -43 -359 -24 -491 88 -599 610 -1045 1176 -1005 493 34 894 409
996 931 21 104 18 359 -5 465 -52 243 -153 435 -319 607 -159 165 -349 273
-562 319 -99 22 -293 27 -383 10z m423 -226 c364 -95 633 -402 695 -793 17
-103 8 -298 -19 -399 -89 -341 -336 -601 -666 -699 -91 -27 -289 -37 -389 -19
-173 31 -334 112 -464 234 -94 89 -153 167 -205 271 -216 432 -93 965 288
1252 116 88 290 158 435 177 72 9 246 -4 325 -24z"/>
<path d="M6585 4502 c-11 -2 -24 -7 -28 -11 -4 -5 42 -143 104 -307 61 -164
114 -309 116 -321 3 -12 13 -29 22 -37 14 -13 20 -13 34 -3 14 11 13 21 -17
107 -92 267 -200 566 -205 571 -3 3 -15 4 -26 1z"/>
<path d="M6450 4321 c0 -76 4 -132 10 -136 6 -4 10 42 10 129 0 84 -4 136 -10
136 -6 0 -10 -50 -10 -129z"/>
<path d="M7267 4368 c-13 -29 -66 -143 -117 -253 -51 -110 -103 -221 -116
-247 l-24 -47 21 -11 c11 -7 22 -10 23 -8 1 2 64 133 141 292 106 221 136 292
129 304 -19 30 -32 23 -57 -30z"/>
<path d="M7240 4381 c0 -25 6 -27 13 -6 4 8 2 17 -3 20 -6 4 -10 -3 -10 -14z"/>
<path d="M6282 4340 c-22 -19 -28 -36 -14 -42 8 -3 239 -297 348 -442 79 -105
90 -115 112 -92 12 11 14 20 7 30 -6 8 -80 105 -165 216 -85 111 -180 235
-211 275 -55 72 -55 72 -77 55z"/>
<path d="M7252 4175 c-9 -21 -12 -71 -10 -155 3 -107 5 -122 16 -103 9 16 12
62 10 155 -3 119 -4 130 -16 103z"/>
<path d="M7374 4018 c-93 -100 -190 -206 -216 -234 -41 -44 -46 -53 -35 -68
11 -15 20 -9 87 61 93 98 282 296 328 345 32 34 33 38 19 58 -14 21 -19 16
-183 -162z"/>
<path d="M6032 4026 c-8 -18 -8 -27 1 -34 27 -21 605 -342 615 -342 29 0 9 38
-30 60 -50 28 -523 307 -554 327 -19 12 -22 11 -32 -11z"/>
<path d="M6440 3941 c0 -62 4 -112 10 -116 6 -4 10 33 10 104 0 62 -4 112 -10
116 -6 4 -10 -33 -10 -104z"/>
<path d="M7681 3933 c-1 -12 4 -25 9 -28 12 -7 12 2 0 30 -8 19 -9 19 -9 -2z"/>
<path d="M7680 3873 c-8 -3 -49 -21 -90 -41 -189 -88 -223 -101 -234 -95 -6 3
-8 3 -4 -2 5 -5 -36 -28 -90 -52 -109 -50 -114 -53 -104 -70 6 -9 65 11 212
71 316 128 352 146 348 169 -3 22 -15 28 -38 20z"/>
<path d="M6845 3801 c-121 -56 -187 -210 -151 -352 50 -193 239 -251 366 -113
38 42 70 98 70 124 0 16 -42 -29 -72 -76 -30 -47 -95 -84 -148 -84 -53 0 -112
41 -145 102 -53 96 -35 248 38 326 92 99 228 72 284 -57 13 -31 31 -69 39 -86
14 -30 14 -29 10 24 -15 154 -162 252 -291 192z"/>
<path d="M7250 3795 l-23 -25 25 0 c21 0 26 5 26 25 0 14 -1 25 -3 25 -1 0
-12 -11 -25 -25z"/>
<path d="M7713 3809 c-8 -10 -8 -41 -1 -109 14 -140 18 -160 30 -160 7 0 9 34
5 113 -7 130 -17 177 -34 156z"/>
<path d="M6861 3753 c-37 -18 -86 -87 -101 -143 -28 -99 8 -221 79 -267 53
-36 122 -30 173 14 15 13 15 17 -5 48 -16 24 -30 34 -48 35 -37 0 -69 29 -78
70 -11 50 1 77 39 85 24 5 30 11 25 23 -4 10 -9 38 -12 63 -4 38 -2 47 12 53
26 10 41 -8 59 -74 17 -58 18 -60 52 -60 38 0 40 6 19 58 -41 97 -130 136
-214 95z"/>
<path d="M7150 3685 c-24 -28 4 -33 55 -9 l50 23 -46 0 c-30 1 -51 -4 -59 -14z"/>
<path d="M7312 3641 c-78 -31 -144 -60 -148 -64 -9 -9 350 -9 424 -1 l52 7 0
49 c0 30 -5 50 -12 53 -7 2 -50 5 -95 8 -79 3 -84 2 -221 -52z"/>
<path d="M5930 3646 c0 -22 5 -25 58 -30 31 -3 172 -8 313 -12 l256 -6 5 29 4
30 -230 6 c-127 4 -270 7 -318 7 -86 0 -88 0 -88 -24z"/>
<path d="M5930 3571 l0 -31 350 0 c307 0 351 2 357 15 3 9 3 18 1 20 -2 3
-108 7 -234 10 -126 2 -284 7 -351 11 l-123 6 0 -31z"/>
<path d="M6655 3558 c-4 -18 -12 -36 -18 -39 -6 -4 -4 -16 7 -30 23 -34 20
-56 -10 -63 -31 -8 -26 -32 6 -28 13 1 31 -5 42 -15 18 -16 18 -15 2 28 -9 24
-16 74 -17 112 -1 37 -2 67 -3 67 -1 0 -6 -15 -9 -32z"/>
<path d="M7480 3550 c-45 -5 -34 -7 58 -8 69 -1 112 2 112 8 0 11 -81 11 -170
0z"/>
<path d="M7160 3507 c0 -23 2 -24 173 -35 94 -7 227 -12 295 -12 l122 0 0 28
0 29 -172 6 c-95 4 -228 7 -295 7 -122 0 -123 0 -123 -23z"/>
<path d="M5934 3458 c4 -35 13 -69 20 -76 10 -10 55 -15 152 -19 l139 -5 130
47 c72 26 142 52 158 57 19 7 27 17 27 34 l0 24 -316 0 -317 0 7 -62z"/>
<path d="M6304 3362 l-322 -115 10 -29 c5 -15 13 -28 18 -28 4 0 132 52 285
115 153 63 283 115 289 115 21 1 61 38 51 48 -6 6 -127 -32 -331 -106z"/>
<path d="M7150 3455 c0 -6 36 -28 79 -50 l79 -38 129 6 c183 10 203 14 203 43
0 23 -4 24 -59 24 -33 0 -115 4 -183 10 -216 16 -248 17 -248 5z"/>
<path d="M7715 3403 c-3 -21 -14 -74 -24 -118 -11 -44 -17 -82 -16 -83 5 -6
54 153 61 198 4 26 3 40 -4 40 -6 0 -14 -17 -17 -37z"/>
<path d="M7136 3423 c-19 -19 10 -41 172 -129 97 -53 200 -111 227 -128 28
-17 62 -37 76 -43 24 -10 28 -9 38 14 10 21 9 28 -1 35 -40 27 -507 256 -512
251z"/>
<path d="M6565 3399 c-11 -5 -45 -20 -75 -34 l-55 -24 65 2 c52 2 65 5 65 18
0 9 6 24 14 33 15 18 14 18 -14 5z"/>
<path d="M6419 3155 c-128 -125 -235 -229 -237 -234 -1 -4 8 -17 22 -30 l24
-22 223 236 c207 217 242 262 213 272 -5 2 -116 -98 -245 -222z"/>
<path d="M6100 3324 c0 -17 22 -14 28 4 2 7 -3 12 -12 12 -9 0 -16 -7 -16 -16z"/>
<path d="M6468 3288 c-52 -107 -230 -228 -337 -228 -53 0 -54 -13 -9 -72 l43
-55 200 193 200 194 -41 0 c-36 0 -42 -4 -56 -32z"/>
<path d="M7066 3311 c-9 -13 303 -486 321 -486 9 0 21 8 27 17 8 14 6 23 -12
45 -12 15 -88 119 -169 230 -82 111 -151 202 -155 202 -4 1 -9 -3 -12 -8z"/>
<path d="M6332 3303 c-9 -4 -8 -12 5 -34 19 -32 26 -35 41 -16 7 8 5 18 -8 35
-10 12 -20 22 -22 21 -1 0 -9 -3 -16 -6z"/>
<path d="M6484 3113 l-179 -187 70 38 c90 49 215 139 259 186 19 20 44 57 56
80 21 42 21 44 4 57 -10 7 -21 13 -25 13 -3 0 -87 -84 -185 -187z"/>
<path d="M6402 3250 c-35 -47 -125 -109 -204 -141 -59 -24 -65 -29 -33 -24 83
14 202 91 255 166 28 38 10 38 -18 -1z"/>
<path d="M6593 2998 l-141 -283 29 -14 c18 -9 33 -11 38 -5 19 20 252 564 246
574 -3 5 -12 10 -19 10 -6 0 -75 -127 -153 -282z"/>
<path d="M6970 3250 c-12 -7 -9 -28 19 -132 19 -68 51 -177 72 -243 20 -66 42
-139 48 -162 11 -41 12 -42 41 -31 26 9 29 14 24 36 -8 32 -174 512 -183 529
-4 8 -11 9 -21 3z"/>
<path d="M6860 3232 c0 -4 -14 -82 -30 -172 -26 -141 -60 -378 -60 -416 0 -15
31 -27 41 -17 4 4 24 127 43 273 20 146 39 282 42 303 5 33 3 37 -15 37 -12 0
-21 -4 -21 -8z"/>
<path d="M6137 3222 c-11 -2 -16 -10 -13 -17 3 -8 10 -32 16 -54 8 -29 15 -39
25 -35 18 7 18 26 2 74 -9 27 -17 35 -30 32z"/>
<path d="M6098 3073 c7 -3 16 -2 19 1 4 3 -2 6 -13 5 -11 0 -14 -3 -6 -6z"/>
<path d="M7216 2725 c-25 -19 -9 -19 24 0 14 8 19 14 10 14 -8 0 -24 -6 -34
-14z"/>
<path d="M2439 4746 c-67 -18 -126 -56 -195 -125 -69 -71 -122 -153 -130 -203
-7 -38 12 -121 25 -113 5 3 4 24 -3 47 -12 43 -11 98 2 98 13 0 52 -65 58 -96
3 -16 14 -34 24 -39 75 -39 121 -73 126 -91 4 -17 16 -23 54 -27 64 -8 135
-45 201 -105 55 -51 99 -112 80 -112 -6 0 -11 3 -11 8 0 13 -111 122 -150 147
-38 24 -148 61 -156 52 -9 -9 19 -57 37 -62 23 -8 64 -56 90 -106 24 -48 11
-52 -15 -5 -10 19 -32 47 -49 63 l-30 28 28 -50 c49 -86 169 -259 198 -283 15
-13 27 -30 27 -38 0 -7 7 -29 17 -48 16 -34 16 -36 -11 -70 -33 -43 -47 -45
-95 -7 -20 15 -46 33 -58 40 -16 8 -23 21 -23 43 0 24 -13 44 -60 92 -33 33
-76 78 -96 99 -20 21 -39 36 -41 33 -9 -9 17 -139 39 -200 23 -64 117 -174
171 -203 94 -48 186 55 297 335 40 103 92 184 153 240 26 23 44 42 41 42 -9 0
52 84 80 109 42 40 39 18 -4 -29 -22 -24 -40 -47 -40 -51 0 -6 120 56 148 77
5 3 -46 130 -78 194 -40 79 -117 179 -166 213 -23 16 -45 29 -48 28 -4 -1 -19
5 -35 14 -17 8 -36 12 -44 9 -7 -2 -20 2 -27 11 -7 8 -21 15 -31 15 -10 0 -21
4 -24 10 -3 5 -20 10 -38 10 -63 0 -77 1 -82 11 -8 13 -101 10 -156 -5z m517
-476 c-56 -51 -134 -164 -185 -266 -37 -75 -91 -229 -91 -260 0 -7 -4 -14 -9
-14 -22 0 30 171 87 285 63 127 193 295 228 295 8 0 -6 -18 -30 -40z m43 -52
c-76 -91 -154 -214 -209 -331 -27 -56 -49 -94 -50 -83 -1 54 163 335 251 431
62 67 68 54 8 -17z"/>
<path d="M7222 4725 c0 -16 2 -22 5 -12 2 9 2 23 0 30 -3 6 -5 -1 -5 -18z"/>
<path d="M3420 4575 c-30 -9 -83 -20 -118 -25 -102 -16 -118 -34 -90 -95 8
-17 24 -29 52 -36 49 -13 70 -23 113 -50 51 -33 160 -37 258 -10 81 23 168 64
218 104 l28 22 -53 32 c-29 18 -80 39 -113 48 -87 23 -228 28 -295 10z"/>
<path d="M1557 4464 c-4 -4 -7 -16 -7 -26 0 -13 -7 -18 -25 -18 -21 0 -25 -5
-25 -27 0 -16 9 -39 19 -52 l19 -24 16 31 c9 18 23 32 30 32 7 0 26 -28 41
-61 l27 -62 -19 -37 c-16 -33 -17 -48 -9 -133 8 -87 11 -95 30 -94 12 0 26 -1
31 -2 29 -9 55 0 55 18 0 11 -4 23 -10 26 -19 12 -10 55 20 88 38 43 39 89 6
155 -28 54 -62 89 -127 126 -25 14 -50 35 -55 47 -5 11 -13 17 -17 13z"/>
<path d="M4095 4424 c-11 -3 -32 -10 -47 -16 -25 -9 -26 -13 -21 -58 3 -27 1
-61 -4 -77 -9 -25 -4 -39 38 -113 64 -111 115 -233 144 -345 l23 -90 176 -3
176 -2 16 37 c40 93 32 236 -18 346 -17 37 -34 67 -37 67 -4 0 -15 14 -24 30
-10 17 -25 30 -33 30 -8 0 -14 7 -14 15 0 8 -7 15 -16 15 -8 0 -12 5 -9 10 3
6 -1 13 -10 17 -10 3 -20 0 -24 -6 -6 -8 -13 -4 -25 14 -13 20 -24 25 -44 23
-24 -3 -27 0 -24 22 2 18 -4 28 -23 37 -19 8 -23 8 -19 0 4 -7 -5 -1 -18 13
-14 14 -24 28 -22 31 4 7 -112 9 -141 3z"/>
<path d="M1570 4341 c-5 -11 -10 -33 -10 -50 0 -39 31 -106 41 -89 4 7 3 19
-4 27 -6 7 -12 40 -12 72 0 33 -1 59 -2 59 -1 0 -7 -9 -13 -19z"/>
<path d="M4334 4338 l-19 -23 23 19 c12 11 22 21 22 23 0 8 -8 2 -26 -19z"/>
<path d="M1594 4306 c-8 -20 5 -47 24 -54 17 -5 15 30 -2 54 -14 19 -15 19
-22 0z"/>
<path d="M2198 4281 c2 -18 29 -57 68 -101 35 -39 78 -98 95 -132 17 -34 40
-74 51 -89 22 -29 19 -43 -12 -59 -16 -9 -31 1 -99 69 -74 75 -80 79 -95 62
-15 -16 -14 -19 12 -43 15 -13 43 -34 62 -46 19 -11 48 -34 64 -51 l29 -30 28
21 c24 18 33 20 53 10 18 -8 27 -8 35 1 7 9 -3 33 -36 82 -24 39 -58 96 -74
128 -21 41 -35 57 -49 57 -28 0 -36 27 -15 50 16 18 15 19 -12 36 -15 9 -44
28 -64 41 -45 29 -46 29 -41 -6z"/>
<path d="M7820 4292 c0 -4 106 -60 236 -125 232 -115 237 -117 255 -99 17 19
17 20 -7 31 -14 6 -40 11 -58 11 -19 0 -63 16 -102 36 -117 62 -305 154 -315
154 -5 0 -9 -3 -9 -8z"/>
<path d="M8321 4227 c-31 -46 -43 -98 -24 -104 20 -7 73 76 73 114 0 44 -13
42 -49 -10z"/>
<path d="M2080 4232 c0 -4 9 -22 20 -40 11 -17 25 -52 31 -77 11 -42 13 -44
38 -38 14 3 28 7 30 9 9 8 -77 138 -96 145 -13 5 -23 5 -23 1z"/>
<path d="M3182 4185 c-106 -56 -194 -129 -256 -209 -43 -57 -114 -194 -150
-289 -49 -131 -92 -189 -168 -228 -72 -37 -125 -19 -227 75 -31 29 -33 29 -21
6 25 -51 103 -120 152 -135 52 -15 78 -11 143 23 84 44 109 81 190 287 58 148
98 215 167 281 66 64 164 138 212 160 36 18 42 29 28 51 -5 8 -25 2 -70 -22z"/>
<path d="M3976 4190 l-26 -31 33 -59 32 -59 28 28 29 28 -26 49 c-41 80 -40
79 -70 44z"/>
<path d="M3236 4142 c-20 -32 -46 -361 -46 -586 0 -104 2 -117 16 -112 9 3 28
9 42 13 15 3 30 11 35 17 4 6 7 130 6 276 -1 146 2 273 6 282 16 38 -39 141
-59 110z"/>
<path d="M4735 4090 l25 -50 75 0 c60 0 75 3 75 15 0 11 11 15 41 15 33 0 40
3 35 16 -3 9 -6 24 -6 35 0 18 -9 19 -135 19 l-135 0 25 -50z"/>
<path d="M3119 4066 c-129 -95 -184 -167 -239 -309 l-28 -74 18 -106 c22 -133
74 -250 135 -306 23 -21 52 -42 64 -46 28 -9 27 -25 -1 -17 -13 3 -48 31 -79
61 -62 62 -112 166 -130 269 -19 114 -16 113 -59 25 -43 -88 -77 -123 -155
-159 -66 -31 -131 -31 -176 -1 -60 41 -61 40 -38 -4 36 -72 104 -172 140 -206
61 -58 223 -122 307 -123 22 0 21 3 -20 48 -51 58 -129 210 -135 267 -3 30 -2
36 6 25 6 -8 11 -24 11 -35 0 -28 84 -194 120 -238 47 -56 102 -81 162 -73 63
9 98 25 98 46 0 13 -15 20 -67 28 -78 13 -120 42 -175 123 -42 62 -82 158 -76
186 3 11 11 -4 21 -37 21 -73 86 -178 131 -214 23 -19 58 -34 94 -41 l57 -12
3 40 c3 35 -2 45 -36 81 -44 45 -100 136 -84 136 6 0 24 -24 40 -53 17 -30 52
-73 78 -95 32 -29 41 -42 29 -42 -26 0 -15 -55 35 -168 22 -51 45 -114 52
-139 8 -34 25 -60 62 -97 78 -79 190 -205 204 -232 7 -13 19 -24 27 -24 40 0
26 60 -20 84 -57 31 -152 131 -160 168 -3 18 -20 60 -37 92 -23 43 -32 78 -36
127 l-5 67 -39 6 c-22 4 -42 5 -46 2 -17 -10 8 816 28 958 6 38 9 70 7 72 -1
2 -41 -25 -88 -60z m-496 -733 c3 -16 24 -57 45 -93 40 -66 47 -96 11 -50 -25
32 -79 139 -79 157 0 24 17 13 23 -14z"/>
<path d="M7840 4091 c0 -4 8 -15 18 -23 24 -20 141 -88 153 -88 25 0 1 21 -81
67 -49 29 -90 48 -90 44z"/>
<path d="M3907 4052 c-10 -57 -45 -102 -113 -141 l-61 -36 31 -60 c17 -33 33
-62 34 -65 4 -5 40 34 115 125 23 28 33 43 22 35 -17 -13 -18 -13 -10 0 4 8
16 24 26 35 17 19 17 22 -2 74 -25 73 -35 80 -42 33z"/>
<path d="M4044 4048 l-29 -33 33 29 c17 17 32 31 32 33 0 8 -8 1 -36 -29z"/>
<path d="M2171 4061 c-10 -6 -10 -10 -1 -16 13 -8 24 -1 19 14 -3 6 -10 7 -18
2z"/>
<path d="M8179 4027 c-18 -23 -71 -81 -118 -129 l-85 -88 39 0 c31 0 45 7 74
38 38 39 88 101 135 164 27 36 27 37 7 47 -17 9 -24 5 -52 -32z"/>
<path d="M4930 3910 l0 -140 118 -1 c64 0 142 -3 172 -6 30 -3 143 -7 251 -9
l196 -5 7 55 c3 30 9 61 12 70 4 11 1 16 -10 16 -11 0 -26 -20 -41 -55 -29
-65 -42 -70 -170 -69 -64 0 -99 5 -123 18 -18 9 -37 14 -42 11 -14 -8 -266 22
-292 36 -68 35 -73 63 -24 133 30 40 33 51 23 67 -8 12 -23 19 -44 19 l-33 0
0 -140z"/>
<path d="M7867 4022 c6 -24 110 -85 119 -70 4 6 1 14 -7 19 -104 63 -117 69
-112 51z"/>
<path d="M3340 3959 c0 -19 7 -70 15 -114 8 -44 18 -140 21 -212 4 -73 9 -133
11 -133 2 0 41 14 86 32 45 17 84 30 86 29 1 -2 24 16 48 40 25 24 42 37 38
29 -6 -12 -5 -13 5 -3 16 15 1 93 -32 174 -19 46 -23 49 -53 47 -39 -2 -111
38 -177 100 l-48 45 0 -34z"/>
<path d="M1643 3965 c-3 -9 -3 -18 0 -21 9 -9 27 6 27 22 0 19 -19 18 -27 -1z"/>
<path d="M1678 3940 c-32 -33 -36 -45 -10 -31 10 5 24 6 32 1 10 -6 7 -9 -10
-12 -36 -5 -47 -31 -28 -70 9 -18 19 -41 23 -52 5 -17 7 -18 23 -2 26 23 39
20 17 -4 -18 -20 -18 -21 1 -35 10 -8 21 -15 24 -15 12 0 9 56 -6 99 -11 31
-14 63 -10 99 5 45 4 52 -11 52 -10 -1 -30 -14 -45 -30z"/>
<path d="M7895 3938 c10 -47 13 -50 40 -32 29 19 25 28 -17 50 l-30 16 7 -34z"/>
<path d="M8171 3917 c-14 -14 76 -71 108 -69 14 1 26 4 28 6 3 2 -25 20 -61
39 -44 23 -68 31 -75 24z"/>
<path d="M8665 3890 c-22 -4 -61 -17 -86 -28 -70 -32 -327 -89 -490 -107 -79
-9 -146 -19 -148 -20 -2 -2 0 -34 4 -70 6 -60 8 -65 31 -65 35 0 330 73 464
116 139 43 202 76 239 123 35 46 44 61 34 60 -4 -1 -26 -5 -48 -9z"/>
<path d="M8140 3876 c-9 -12 -6 -18 19 -30 61 -32 91 -11 32 22 -33 19 -40 20
-51 8z"/>
<path d="M2402 3857 l-22 -24 20 -18 c19 -18 21 -18 40 0 23 21 23 58 0 63 -9
1 -26 -8 -38 -21z"/>
<path d="M2487 3873 c-4 -3 -7 -15 -7 -25 0 -10 -9 -27 -20 -38 -27 -27 -6
-36 26 -11 18 14 34 19 50 15 29 -8 30 0 3 37 -20 28 -39 36 -52 22z"/>
<path d="M8099 3834 c-11 -14 -10 -16 9 -12 13 1 23 7 23 13 1 17 -17 16 -32
-1z"/>
<path d="M2180 3745 c-47 -35 -99 -69 -117 -75 -44 -15 -100 1 -159 46 -44 34
-46 34 -41 13 4 -13 7 -33 7 -45 0 -27 73 -64 128 -64 22 0 61 9 87 20 26 11
64 20 85 20 51 0 92 34 94 78 0 18 4 32 9 32 4 0 7 9 7 20 0 11 -3 20 -7 20
-5 0 -46 -30 -93 -65z"/>
<path d="M2486 3778 c-11 -15 -12 -26 -6 -32 6 -6 10 -20 10 -32 0 -31 10 -54
23 -54 6 0 21 -10 34 -22 29 -27 55 -16 64 28 5 28 5 28 13 6 5 -16 3 -29 -8
-41 -20 -22 -20 -31 -2 -31 7 0 21 11 30 25 16 24 16 29 -1 78 -15 41 -27 56
-58 74 -51 29 -80 29 -99 1z"/>
<path d="M2280 3721 c0 -28 -45 -71 -75 -71 -23 0 -25 -4 -25 -42 0 -55 38
-136 80 -171 18 -15 52 -33 76 -39 24 -7 44 -16 44 -20 0 -24 -99 17 -143 60
-41 40 -77 123 -77 177 0 38 0 38 -105 -3 -48 -19 -50 -21 -53 -63 -5 -64 14
-115 60 -165 46 -50 84 -64 174 -64 67 0 114 13 156 42 27 18 27 20 12 52 -9
18 -28 37 -44 43 -34 13 -79 87 -86 140 -5 42 -2 37 33 -49 13 -31 73 -102 73
-86 0 3 -12 26 -26 52 -14 26 -23 53 -20 61 3 8 1 17 -4 20 -6 4 -10 22 -10
42 0 40 -20 103 -32 103 -4 0 -8 -8 -8 -19z m-160 -189 c6 -24 27 -61 47 -83
41 -45 29 -53 -15 -9 -32 31 -62 106 -61 149 0 23 1 24 9 6 4 -11 13 -39 20
-63z m-63 13 c1 -20 11 -56 23 -81 12 -25 20 -48 16 -51 -10 -10 -56 100 -56
135 0 44 15 41 17 -3z"/>
<path d="M4136 3703 l-328 -3 6 -23 c3 -12 6 -37 6 -55 l0 -32 655 0 655 0 0
44 c0 25 -3 51 -6 60 -7 17 11 17 -988 9z"/>
<path d="M5323 3645 c4 -27 8 -50 10 -51 1 -1 75 -5 165 -8 l162 -6 0 50 0 50
-147 0 c-82 0 -159 3 -172 7 -24 6 -24 5 -18 -42z"/>
<path d="M1858 3621 c-5 -32 6 -61 23 -61 14 0 7 82 -7 87 -7 2 -14 -10 -16
-26z"/>
<path d="M8136 3615 c-27 -8 -80 -19 -118 -26 -64 -12 -68 -14 -68 -39 0 -15
-3 -42 -6 -60 l-7 -32 44 7 c110 18 176 60 213 133 19 37 17 37 -58 17z"/>
<path d="M1906 3611 c-13 -21 16 -94 54 -134 l38 -41 -9 54 c-5 30 -7 67 -3
81 4 22 1 28 -20 33 -13 3 -31 8 -39 12 -8 3 -18 1 -21 -5z"/>
<path d="M4267 3573 c-15 -4 -17 -12 -12 -51 6 -41 21 -117 41 -213 6 -26 5
-26 -48 -22 -41 4 -70 -2 -133 -25 -44 -16 -115 -37 -157 -45 -76 -16 -218
-79 -218 -96 0 -16 51 -71 79 -85 15 -8 65 -17 111 -21 144 -10 146 -11 163
-53 20 -50 6 -138 -34 -211 -37 -70 -24 -89 24 -36 56 61 93 210 78 307 -17
101 7 142 120 209 36 21 74 50 83 63 9 14 34 76 55 138 21 62 42 120 45 129 6
13 -6 15 -86 16 -51 0 -101 -2 -111 -4z"/>
<path d="M5076 3543 c66 -278 339 -560 619 -641 81 -24 153 -34 160 -22 2 4
-16 43 -41 86 -24 44 -47 88 -50 100 -4 16 -11 19 -35 16 -47 -7 -147 49 -234
130 -88 82 -208 245 -231 312 l-16 46 -89 0 -89 0 6 -27z"/>
<path d="M5370 3560 c0 -6 55 -9 148 -8 120 1 135 2 82 8 -100 12 -230 11
-230 0z"/>
<path d="M5404 3521 c32 -36 135 -79 201 -84 l60 -5 -3 49 -4 49 -57 0 c-32 0
-94 3 -137 6 l-79 7 19 -22z"/>
<path d="M5440 3390 c-24 -28 -40 -54 -36 -57 3 -4 7 -4 9 -2 1 2 24 28 52 57
32 34 44 52 33 52 -9 0 -35 -23 -58 -50z"/>
<path d="M1930 3350 c-41 -33 -94 -72 -117 -87 -65 -43 -64 -53 14 -130 l68
-68 -23 45 c-18 35 -22 56 -19 93 7 77 26 90 149 98 57 4 104 8 106 8 3 1 -98
101 -101 101 -1 -1 -36 -28 -77 -60z"/>
<path d="M5653 3330 c-71 -153 -74 -163 -60 -178 12 -12 20 -1 51 74 23 55 36
100 34 119 l-4 30 -21 -45z"/>
<path d="M3701 3012 c-13 -48 -30 -96 -36 -107 -7 -12 -14 -44 -16 -73 -4 -51
-4 -52 24 -52 23 0 27 3 22 19 -9 31 5 71 25 71 17 0 19 11 22 103 4 139 -10
154 -41 39z"/>
<path d="M2774 3046 c55 -73 69 -131 45 -193 -5 -15 -47 -64 -92 -109 -95 -93
-132 -140 -118 -149 6 -3 15 4 21 16 9 17 19 20 47 17 32 -4 36 -1 55 36 45
90 102 178 130 201 23 19 41 25 79 25 27 0 49 4 49 9 0 5 -21 35 -46 67 -25
33 -49 64 -52 71 -4 6 -37 18 -74 26 l-68 14 24 -31z"/>
<path d="M1960 2973 c33 -48 58 -73 71 -73 18 0 18 3 6 33 -9 20 -21 33 -36
35 -12 2 -38 20 -57 40 -28 30 -25 23 16 -35z"/>
<path d="M4058 2953 c15 -31 17 -33 20 -14 4 22 -13 51 -29 51 -5 0 -1 -16 9
-37z"/>
<path d="M2115 2930 c-11 -17 18 -48 55 -59 54 -16 55 -15 20 29 -30 38 -62
51 -75 30z"/>
<path d="M2066 2906 c6 -16 34 -30 42 -21 8 7 -19 35 -34 35 -7 0 -11 -6 -8
-14z"/>
<path d="M5933 2858 c9 -61 84 -141 207 -225 49 -33 170 -94 130 -66 -127 91
-230 187 -311 288 l-32 40 6 -37z"/>
<path d="M3655 2761 c-38 -8 -48 -41 -12 -41 22 0 57 27 57 43 0 8 -1 8 -45
-2z"/>
<path d="M4022 2650 c-11 -17 -10 -20 7 -20 16 0 31 18 31 36 0 12 -27 1 -38
-16z"/>
<path d="M3965 2582 c-13 -19 -22 -39 -19 -43 2 -4 26 0 52 9 26 9 48 17 49
17 1 1 0 10 -3 22 -3 12 -16 23 -30 26 -20 3 -30 -3 -49 -31z"/>
<path d="M2570 2591 c0 -9 30 -24 36 -18 2 1 -6 8 -16 15 -11 7 -20 8 -20 3z"/>
<path d="M2514 2551 c-48 -29 -51 -41 -9 -41 20 0 44 -4 54 -10 16 -8 20 -5
25 22 10 49 -18 61 -70 29z"/>
</g>
</svg>
