<?xml version="1.0" standalone="no"?>
<!DOCTYPE svg PUBLIC "-//W3C//DTD SVG 20010904//EN"
 "http://www.w3.org/TR/2001/REC-SVG-20010904/DTD/svg10.dtd">
<svg version="1.0" xmlns="http://www.w3.org/2000/svg"
 width="1002.000000pt" height="1002.000000pt" viewBox="0 0 1002.000000 1002.000000"
 preserveAspectRatio="xMidYMid meet">

<g transform="translate(0.000000,1002.000000) scale(0.100000,-0.100000)"
fill="#000000" stroke="none">
<path d="M5584 7130 c-36 -14 -79 -66 -142 -167 -78 -127 -213 -309 -337 -453
-112 -131 -358 -378 -428 -430 l-46 -35 -1 -172 c0 -95 3 -173 6 -173 12 0
219 175 310 263 129 123 327 350 397 455 90 133 310 592 331 690 8 32 7 32
-31 31 -21 0 -47 -4 -59 -9z"/>
<path d="M1692 6334 c-30 -20 -52 -37 -50 -39 22 -21 353 -133 364 -123 2 2
-24 24 -58 48 -73 51 -88 63 -143 113 -23 20 -46 37 -51 37 -5 0 -33 -16 -62
-36z"/>
<path d="M4770 6344 c-141 -65 -355 -107 -531 -105 l-115 1 -22 -29 -21 -29
67 5 c242 16 539 71 606 113 28 17 86 71 75 69 -2 0 -29 -11 -59 -25z"/>
<path d="M1554 6225 l-59 -54 25 -20 c134 -106 433 -201 631 -201 58 0 59 1
84 41 39 61 39 66 8 73 -15 4 -56 21 -91 37 -34 16 -68 29 -76 29 -31 0 -263
72 -354 110 -52 22 -98 40 -102 40 -4 0 -33 -25 -66 -55z"/>
<path d="M4635 6238 c-115 -31 -290 -58 -435 -67 -76 -4 -141 -11 -147 -14 -5
-3 -31 -33 -57 -66 l-47 -61 105 0 c126 0 303 22 406 51 59 16 88 31 140 74
57 47 121 107 109 104 -2 -1 -35 -10 -74 -21z"/>
<path d="M1476 6134 c-31 -80 69 -165 339 -288 165 -74 300 -107 420 -101 22
1 72 3 111 4 l70 1 22 53 c12 29 22 55 22 57 0 3 -42 4 -92 2 -51 -2 -111 1
-133 6 -35 7 -40 12 -38 34 1 25 0 25 -90 31 -209 15 -435 88 -570 183 -55 39
-53 39 -61 18z"/>
<path d="M4385 6044 c-86 -19 -242 -34 -355 -34 -92 0 -99 -1 -113 -24 -11
-17 -32 -26 -75 -35 -51 -10 -269 -30 -339 -31 -14 0 -24 -9 -31 -27 -5 -16
-13 -35 -16 -44 -9 -20 30 -18 304 17 338 43 536 91 656 159 64 37 60 39 -31
19z"/>
<path d="M4582 6008 c-9 -9 -12 -98 -12 -340 0 -212 -4 -328 -10 -328 -6 0
-10 112 -10 316 0 295 -1 315 -17 312 -17 -3 -18 -25 -14 -333 2 -182 4 -331
6 -333 1 -1 21 0 44 4 l42 7 -1 353 c-1 195 -5 354 -9 354 -4 0 -12 -5 -19
-12z"/>
<path d="M4487 5848 c-6 -104 -49 -417 -66 -473 -7 -24 -4 -36 10 -54 11 -13
19 -30 19 -39 0 -12 6 -10 25 8 l25 23 0 319 c-1 175 -2 318 -4 318 -2 0 -6
-46 -9 -102z"/>
<path d="M4452 5922 c-16 -12 -23 -26 -20 -43 3 -22 5 -20 25 18 12 24 21 43
20 43 -1 0 -13 -9 -25 -18z"/>
<path d="M3305 5899 c-107 -10 -524 -29 -655 -29 l-106 0 -27 -55 c-15 -31
-27 -58 -27 -62 0 -11 400 5 535 21 282 34 346 47 354 70 18 46 22 66 14 65
-4 -1 -44 -5 -88 -10z"/>
<path d="M4345 5874 c-33 -12 -100 -32 -149 -45 l-89 -22 7 -386 c8 -456 13
-536 32 -521 24 20 101 194 137 307 56 176 135 597 125 666 l-3 22 -60 -21z"/>
<path d="M3404 5855 c-21 -52 -38 -131 -31 -149 12 -30 26 -16 33 32 4 26 15
71 25 100 15 45 16 52 3 52 -8 0 -22 -16 -30 -35z"/>
<path d="M2464 5814 c-35 -79 -64 -163 -64 -186 0 -40 23 -10 45 57 12 39 32
92 44 119 15 33 18 53 12 59 -7 7 -19 -9 -37 -49z"/>
<path d="M3710 5840 c-74 -10 -160 -19 -190 -20 -30 0 -61 -4 -68 -9 -15 -9
-34 -81 -22 -81 13 0 484 69 518 76 38 8 39 11 10 35 -26 24 -67 23 -248 -1z"/>
<path d="M3280 5789 c-113 -21 -410 -51 -565 -56 l-170 -6 -47 -41 c-27 -23
-48 -45 -48 -50 0 -17 417 17 798 65 92 12 102 15 102 33 0 12 3 31 6 44 7 25
1 26 -76 11z"/>
<path d="M4011 5792 c-22 -4 -23 -7 -17 -55 3 -29 6 -148 6 -264 l0 -213 25
12 c25 11 25 13 24 122 -1 61 -4 176 -8 256 l-6 145 -24 -3z"/>
<path d="M4063 5523 c4 -153 10 -465 14 -694 6 -385 8 -418 25 -440 18 -24 18
-19 13 221 -16 672 -25 1107 -25 1146 0 34 -4 44 -17 44 -15 0 -16 -23 -10
-277z"/>
<path d="M3760 5753 c-118 -17 -221 -32 -229 -32 -12 -1 -13 -47 -7 -298 9
-429 18 -663 25 -663 3 0 4 209 3 465 l-4 465 206 0 206 0 0 -559 c0 -422 3
-567 12 -588 12 -27 13 -26 15 27 2 30 0 316 -5 635 l-7 580 -215 -32z"/>
<path d="M3465 5713 c-23 -4 -22 16 -9 -581 l6 -273 23 15 c22 14 24 14 29 -2
3 -9 3 75 1 188 -10 427 -18 660 -24 659 -3 -1 -15 -4 -26 -6z"/>
<path d="M3415 5690 c-7 -21 -39 -27 -50 -10 -7 11 -64 14 -89 4 -9 -3 -16
-12 -16 -20 0 -11 19 -14 85 -14 l85 0 0 30 c0 35 -6 39 -15 10z"/>
<path d="M3105 5664 c-153 -19 -161 -21 -69 -23 118 -2 204 9 204 25 0 8 -6
13 -12 13 -7 -1 -62 -8 -123 -15z"/>
<path d="M2760 5297 c0 -184 -3 -395 -7 -470 -5 -123 -4 -137 10 -137 16 0 17
39 17 470 0 307 -3 470 -10 470 -6 0 -10 -118 -10 -333z"/>
<path d="M2983 5623 c-15 -3 -23 -12 -23 -24 0 -18 8 -19 140 -19 l140 0 0 25
0 25 -117 -1 c-65 -1 -128 -4 -140 -6z"/>
<path d="M3260 5605 c0 -25 1 -25 85 -25 84 0 85 0 85 25 0 25 -1 25 -85 25
-84 0 -85 0 -85 -25z"/>
<path d="M2660 5130 c0 -269 3 -490 6 -490 4 0 22 9 40 21 l34 21 0 469 0 469
-40 0 -40 0 0 -490z"/>
<path d="M2800 5600 c0 -18 7 -20 70 -20 63 0 70 2 70 20 0 18 -7 20 -70 20
-63 0 -70 -2 -70 -20z"/>
<path d="M2195 5293 c3 -175 8 -399 11 -498 l6 -181 34 4 34 4 0 177 c0 98 -3
320 -7 494 l-6 317 -39 0 -39 0 6 -317z"/>
<path d="M2290 5388 c0 -123 3 -415 7 -650 5 -355 9 -426 20 -417 11 9 13 126
13 630 l0 619 140 0 140 0 0 -481 c0 -380 3 -480 13 -477 9 4 13 115 15 503
l2 498 -98 -5 c-53 -3 -107 -10 -118 -16 -17 -9 -25 -8 -40 3 -11 8 -36 15
-56 15 l-38 0 0 -222z"/>
<path d="M2800 5535 c0 -24 2 -25 70 -25 68 0 70 1 70 25 0 24 -2 25 -70 25
-68 0 -70 -1 -70 -25z"/>
<path d="M2960 5535 l0 -25 140 0 140 0 0 25 0 25 -140 0 -140 0 0 -25z"/>
<path d="M3260 5535 c0 -25 1 -25 85 -25 84 0 85 0 85 25 0 25 -1 25 -85 25
-84 0 -85 0 -85 -25z"/>
<path d="M2800 5460 l0 -30 70 0 70 0 0 30 0 30 -70 0 -70 0 0 -30z"/>
<path d="M2960 5460 l0 -30 140 0 140 0 0 30 0 30 -140 0 -140 0 0 -30z"/>
<path d="M3260 5460 l0 -30 85 0 85 0 0 30 0 30 -85 0 -85 0 0 -30z"/>
<path d="M2800 5380 l0 -30 70 0 70 0 0 30 0 30 -70 0 -70 0 0 -30z"/>
<path d="M2960 5380 l0 -30 140 0 140 0 0 30 0 30 -140 0 -140 0 0 -30z"/>
<path d="M3260 5380 l0 -30 85 0 85 0 0 30 0 30 -85 0 -85 0 0 -30z"/>
<path d="M2800 5300 l0 -30 70 0 70 0 0 30 0 30 -70 0 -70 0 0 -30z"/>
<path d="M2960 5300 l0 -30 140 0 140 0 0 30 0 30 -140 0 -140 0 0 -30z"/>
<path d="M3260 5300 l0 -30 85 0 85 0 0 30 0 30 -85 0 -85 0 0 -30z"/>
<path d="M3343 5252 l-83 -3 0 -29 0 -30 90 0 90 0 0 29 c0 17 -3 31 -7 33 -5
2 -45 2 -90 0z"/>
<path d="M2800 5220 l0 -30 70 0 70 0 0 30 0 30 -70 0 -70 0 0 -30z"/>
<path d="M2960 5220 l0 -30 140 0 140 0 0 30 0 30 -140 0 -140 0 0 -30z"/>
<path d="M4527 5198 c-8 -28 -5 -30 28 -26 l27 3 -25 23 -24 23 -6 -23z"/>
<path d="M2800 5145 c0 -24 2 -25 70 -25 68 0 70 1 70 25 0 24 -2 25 -70 25
-68 0 -70 -1 -70 -25z"/>
<path d="M2960 5145 l0 -25 140 0 140 0 0 25 0 25 -140 0 -140 0 0 -25z"/>
<path d="M3260 5145 c0 -25 1 -25 90 -25 89 0 90 0 90 25 0 25 -1 25 -90 25
-89 0 -90 0 -90 -25z"/>
<path d="M4327 5055 c-20 -58 -31 -103 -24 -99 7 4 23 15 37 25 14 9 47 29 73
43 l48 28 -40 44 c-23 24 -41 48 -41 54 0 5 -4 10 -8 10 -5 0 -25 -47 -45
-105z"/>
<path d="M4504 5093 c-3 -10 -10 -26 -15 -35 -5 -10 -9 -31 -9 -48 0 -25 4
-30 24 -30 27 0 66 42 65 69 0 9 -13 26 -30 39 -27 22 -29 22 -35 5z"/>
<path d="M4637 5090 c-3 -12 0 -35 8 -52 12 -30 13 -31 24 -10 16 29 14 46 -8
66 -17 16 -19 16 -24 -4z"/>
<path d="M4803 5088 c-5 -13 -7 -32 -2 -43 4 -11 8 -47 9 -80 1 -57 1 -59 15
-35 18 31 19 127 2 158 l-13 23 -11 -23z"/>
<path d="M2800 5069 c0 -31 1 -31 38 -25 20 3 52 6 70 6 27 0 32 3 32 25 0 24
-2 25 -70 25 l-70 0 0 -31z"/>
<path d="M2960 5075 c0 -25 1 -25 88 -25 48 0 111 -3 140 -6 l52 -7 0 32 0 31
-140 0 -140 0 0 -25z"/>
<path d="M3260 5070 l0 -30 74 0 c41 0 81 -3 90 -6 13 -5 16 1 16 30 l0 36
-90 0 -90 0 0 -30z"/>
<path d="M2807 5023 c-4 -3 -7 -17 -7 -30 0 -22 3 -23 70 -23 l70 0 0 30 0 30
-63 0 c-35 0 -67 -3 -70 -7z"/>
<path d="M2960 5000 l0 -30 141 0 140 0 -3 28 -3 27 -137 3 -138 3 0 -31z"/>
<path d="M3250 4995 c0 -25 0 -25 95 -25 95 0 95 0 95 25 0 25 0 25 -95 25
-95 0 -95 0 -95 -25z"/>
<path d="M7814 4936 c-44 -22 -91 -48 -103 -57 l-22 -17 27 -9 c23 -8 36 -5
74 19 191 118 502 -7 623 -251 20 -40 37 -86 37 -101 0 -16 7 -30 15 -34 8 -3
15 -17 15 -31 0 -15 6 -25 14 -25 24 0 28 18 11 43 -21 32 -9 62 44 110 l42
38 -20 27 c-64 88 -236 224 -336 266 -73 31 -226 66 -284 65 -45 -1 -72 -9
-137 -43z"/>
<path d="M2800 4930 l0 -30 70 0 c67 0 70 1 70 24 0 29 -16 36 -86 36 -53 0
-54 0 -54 -30z"/>
<path d="M2960 4925 l0 -25 140 0 140 0 0 25 0 25 -140 0 -140 0 0 -25z"/>
<path d="M3260 4925 c0 -25 1 -25 90 -25 89 0 90 0 90 25 0 25 -1 25 -90 25
-89 0 -90 0 -90 -25z"/>
<path d="M7834 4876 c-28 -13 -55 -29 -59 -36 -4 -7 7 -24 31 -43 68 -54 188
-175 207 -205 17 -30 17 -30 -18 -72 -27 -32 -35 -51 -35 -80 0 -22 5 -42 11
-46 6 -4 9 -19 5 -35 -5 -27 -4 -28 14 -19 10 5 22 15 25 20 4 6 11 8 16 5 13
-9 -15 -58 -51 -88 -16 -14 -30 -33 -30 -42 0 -9 -7 -30 -16 -47 -9 -17 -23
-53 -31 -81 -11 -39 -30 -66 -80 -116 -59 -60 -65 -70 -69 -116 -5 -50 -5 -50
38 -78 24 -15 71 -48 106 -72 43 -31 73 -45 95 -45 63 0 177 86 177 134 0 8
-7 37 -16 63 -14 41 -15 57 -5 107 12 57 40 124 64 155 6 7 10 28 8 46 -3 35
32 127 55 146 28 23 15 32 -40 26 -100 -10 -168 -62 -232 -177 -23 -43 -33
-55 -29 -36 9 40 52 112 90 151 48 47 120 78 190 81 61 2 104 19 152 59 68 57
-18 258 -153 357 -141 104 -307 137 -420 84z m260 -859 c-8 -37 -83 -191 -90
-184 -2 2 11 37 31 78 19 41 38 91 41 111 4 21 11 35 16 32 5 -3 6 -20 2 -37z
m-241 -99 c8 -18 16 -53 17 -78 3 -78 -2 -88 -10 -19 -5 37 -15 80 -24 98 -9
17 -12 31 -7 31 5 0 16 -15 24 -32z m277 -28 c0 -37 -103 -170 -131 -170 -7 0
11 24 38 53 28 29 56 70 64 90 12 35 29 50 29 27z"/>
<path d="M2800 4855 c0 -24 2 -25 70 -25 68 0 70 1 70 25 0 24 -2 25 -70 25
-68 0 -70 -1 -70 -25z"/>
<path d="M2960 4855 l0 -25 140 0 140 0 0 25 0 25 -140 0 -140 0 0 -25z"/>
<path d="M3256 4863 c-11 -28 8 -34 95 -31 78 3 84 4 87 26 3 21 1 22 -86 22
-75 0 -91 -3 -96 -17z"/>
<path d="M7405 4840 c-218 -12 -267 -35 -436 -201 -116 -114 -142 -157 -175
-287 -19 -73 -19 -74 0 -88 11 -8 25 -14 30 -14 6 0 24 33 40 73 82 207 173
321 308 386 190 90 374 93 517 8 71 -43 164 -146 208 -231 35 -70 36 -80 16
-164 -5 -21 -3 -22 19 -12 24 11 24 14 20 98 -3 86 -3 87 27 116 17 17 31 36
31 43 0 19 -177 192 -243 237 -55 38 -61 40 -145 42 -48 1 -145 -1 -217 -6z"/>
<path d="M2800 4790 c0 -24 31 -26 91 -8 58 17 47 28 -26 28 -58 0 -65 -2 -65
-20z"/>
<path d="M2968 4803 c6 -2 18 -2 25 0 6 3 1 5 -13 5 -14 0 -19 -2 -12 -5z"/>
<path d="M3158 4803 c12 -2 32 -2 45 0 12 2 2 4 -23 4 -25 0 -35 -2 -22 -4z"/>
<path d="M3100 4764 c-14 -2 -52 -9 -85 -15 -318 -55 -634 -299 -793 -614 -87
-174 -126 -344 -127 -555 0 -218 37 -382 125 -555 345 -671 1191 -807 1720
-276 182 182 303 424 341 680 19 132 7 374 -24 491 -90 336 -291 590 -582 736
-146 73 -270 104 -430 109 -66 2 -131 2 -145 -1z m300 -235 c158 -40 314 -133
436 -261 326 -340 364 -885 89 -1274 -63 -88 -199 -212 -290 -263 -92 -53
-203 -94 -301 -111 -100 -18 -298 -8 -389 19 -330 98 -577 358 -666 699 -27
101 -36 296 -19 399 68 427 380 748 787 813 87 14 256 4 353 -21z"/>
<path d="M3404 4496 c-26 -73 -165 -467 -195 -551 -34 -100 -36 -111 -22 -122
14 -10 20 -10 34 3 9 8 19 25 22 37 2 12 55 156 116 320 61 164 109 302 106
306 -8 14 -56 19 -61 7z"/>
<path d="M3550 4314 c0 -87 4 -133 10 -129 6 4 10 60 10 136 0 79 -4 129 -10
129 -6 0 -10 -52 -10 -136z"/>
<path d="M2702 4408 c-7 -7 -12 -17 -12 -22 0 -8 260 -557 276 -584 1 -2 11 1
23 7 19 11 18 14 -29 114 -26 56 -89 190 -139 297 -50 107 -94 196 -99 198 -4
1 -13 -3 -20 -10z"/>
<path d="M2766 4392 c-2 -4 -1 -14 5 -22 7 -12 9 -10 9 8 0 23 -5 28 -14 14z"/>
<path d="M3650 4271 c-36 -47 -130 -171 -210 -274 -80 -104 -149 -195 -155
-203 -7 -10 -5 -19 7 -30 22 -23 33 -13 112 92 109 145 340 439 348 442 15 7
8 27 -15 43 -21 15 -23 14 -87 -70z"/>
<path d="M2462 4179 c-12 -19 -10 -25 21 -58 72 -76 265 -279 333 -350 65 -67
72 -73 82 -55 8 16 -15 46 -165 209 -95 105 -193 209 -216 232 -41 42 -42 43
-55 22z"/>
<path d="M2750 4069 c0 -104 3 -140 15 -155 13 -17 14 -5 14 111 0 94 -4 137
-14 155 -13 23 -14 12 -15 -111z"/>
<path d="M3568 4044 c-5 -4 -8 -57 -8 -118 0 -76 3 -107 10 -100 7 7 10 53 8
118 -2 59 -6 104 -10 100z"/>
<path d="M3750 3914 c-124 -74 -262 -155 -307 -181 -57 -32 -83 -52 -83 -65 0
-10 5 -18 12 -18 12 0 616 338 622 349 2 3 -1 16 -7 28 -12 20 -19 16 -237
-113z"/>
<path d="M2331 3943 c0 -6 -4 -20 -7 -30 -5 -14 -4 -15 5 -7 7 7 11 20 8 30
-3 11 -5 14 -6 7z"/>
<path d="M2307 3873 c-4 -3 -7 -14 -7 -23 0 -20 54 -46 350 -166 147 -60 206
-80 212 -71 10 17 5 20 -104 70 -54 24 -95 47 -90 52 4 5 2 5 -4 2 -11 -6 -48
9 -234 96 -89 41 -114 49 -123 40z"/>
<path d="M2281 3758 c-13 -79 -15 -218 -1 -218 10 0 14 22 28 160 8 75 7 98
-3 108 -10 12 -15 3 -24 -50z"/>
<path d="M2743 3795 c0 -20 4 -25 25 -25 l25 0 -23 25 c-13 14 -24 25 -25 25
-2 0 -2 -11 -2 -25z"/>
<path d="M3015 3801 c-71 -32 -123 -109 -131 -194 -5 -51 -4 -52 10 -22 8 17
26 55 39 86 95 218 352 114 351 -141 0 -64 -4 -83 -29 -128 -33 -61 -92 -102
-145 -102 -53 0 -118 37 -148 84 -30 47 -72 92 -72 76 0 -26 32 -82 70 -124
127 -138 316 -80 366 113 56 220 -133 433 -311 352z"/>
<path d="M3025 3752 c-40 -26 -61 -51 -80 -95 -21 -51 -19 -57 19 -57 34 0 35
2 52 60 18 66 33 84 59 74 14 -6 16 -15 12 -53 -3 -25 -8 -53 -12 -63 -5 -12
1 -18 25 -23 38 -8 50 -35 39 -85 -9 -41 -41 -70 -78 -70 -18 -1 -32 -11 -48
-35 -20 -31 -20 -35 -5 -48 30 -26 60 -37 100 -37 55 0 101 34 135 100 25 49
28 63 24 126 -4 81 -41 162 -90 196 -42 30 -114 34 -152 10z"/>
<path d="M2465 3691 l-80 -6 -3 -51 -3 -51 53 -6 c79 -10 433 -8 423 2 -13 11
-293 122 -303 119 -4 -1 -43 -4 -87 -7z"/>
<path d="M2815 3676 c51 -24 79 -19 55 9 -8 10 -29 15 -59 14 l-46 0 50 -23z"/>
<path d="M3609 3663 l-155 -3 4 -31 5 -31 256 6 c141 4 282 9 314 12 52 5 57
8 57 30 l0 24 -162 -2 c-90 -1 -233 -4 -319 -5z"/>
<path d="M3959 3596 c-2 -2 -132 -7 -288 -10 -156 -3 -286 -8 -289 -10 -2 -3
-2 -12 1 -21 6 -13 50 -15 357 -15 l350 0 0 30 0 30 -63 0 c-35 0 -66 -2 -68
-4z"/>
<path d="M3353 3525 c-1 -38 -8 -90 -17 -114 -16 -43 -16 -44 2 -28 11 10 29
16 42 15 32 -4 37 20 6 28 -30 7 -33 29 -10 63 10 13 13 26 7 30 -5 3 -14 22
-19 41 -9 32 -10 29 -11 -35z"/>
<path d="M2370 3550 c0 -6 43 -9 113 -9 100 2 105 3 52 9 -90 11 -165 11 -165
0z"/>
<path d="M2388 3523 l-118 -4 0 -29 0 -30 123 0 c67 0 200 5 295 12 170 11
172 12 172 35 l0 23 -177 -2 c-98 -1 -231 -4 -295 -5z"/>
<path d="M3460 3496 c0 -17 8 -27 28 -34 15 -5 86 -31 157 -57 l130 -47 139 5
c97 4 142 9 152 19 7 7 16 41 20 76 l7 62 -317 0 -316 0 0 -24z"/>
<path d="M3384 3468 c-7 -11 32 -47 52 -48 6 0 136 -52 289 -115 153 -63 281
-115 285 -115 5 0 13 13 18 28 l10 29 -247 88 c-135 48 -281 101 -323 116 -53
19 -79 25 -84 17z"/>
<path d="M2755 3460 c-55 -4 -162 -11 -237 -15 -133 -8 -138 -9 -138 -30 0
-28 23 -32 203 -42 l129 -6 79 38 c43 22 79 45 79 52 0 7 -3 12 -7 11 -5 0
-53 -4 -108 -8z"/>
<path d="M2284 3400 c7 -45 56 -204 61 -198 1 1 -5 39 -16 83 -10 44 -21 97
-24 118 -3 20 -11 37 -17 37 -7 0 -8 -14 -4 -40z"/>
<path d="M2623 3302 c-138 -70 -254 -130 -258 -133 -3 -4 -1 -18 6 -32 10 -23
14 -24 38 -14 14 6 49 26 76 43 28 17 130 75 228 128 158 87 194 114 170 129
-5 3 -121 -52 -260 -121z"/>
<path d="M3441 3394 c8 -9 14 -24 14 -33 0 -13 13 -17 65 -19 35 -2 62 -1 60
1 -3 3 -38 19 -79 36 -52 22 -70 26 -60 15z"/>
<path d="M3343 3364 c-4 -10 11 -33 44 -67 27 -29 129 -137 228 -240 l178
-188 24 23 c13 12 22 25 21 29 -5 13 -471 459 -480 459 -5 0 -11 -7 -15 -16z"/>
<path d="M3892 3328 c6 -18 28 -21 28 -4 0 9 -7 16 -16 16 -9 0 -14 -5 -12
-12z"/>
<path d="M2787 3117 c-81 -111 -157 -215 -169 -230 -18 -22 -20 -31 -12 -45 6
-9 18 -17 27 -17 18 0 330 473 321 486 -3 5 -8 9 -12 8 -4 0 -73 -91 -155
-202z"/>
<path d="M3655 3126 l200 -193 43 55 c45 59 44 72 -9 72 -107 0 -285 121 -337
228 -14 28 -20 32 -56 32 l-41 0 200 -194z"/>
<path d="M3648 3286 c-16 -22 -16 -25 -2 -37 13 -10 17 -10 25 2 27 40 29 47
13 53 -20 8 -16 9 -36 -18z"/>
<path d="M3326 3287 c-17 -13 -17 -15 4 -57 12 -23 37 -60 56 -80 44 -47 169
-137 259 -186 l70 -38 -179 187 c-98 103 -182 187 -185 187 -4 0 -15 -6 -25
-13z"/>
<path d="M3255 3270 c-6 -10 226 -553 246 -574 4 -5 20 -4 38 4 l30 12 -140
281 c-78 155 -147 283 -154 285 -7 2 -16 -2 -20 -8z"/>
<path d="M3600 3251 c53 -75 172 -152 255 -166 32 -5 26 0 -33 24 -79 32 -169
94 -204 141 -28 39 -46 39 -18 1z"/>
<path d="M3017 3217 c-74 -211 -165 -477 -170 -499 -6 -22 -3 -27 23 -36 29
-11 30 -10 40 31 6 23 24 83 40 132 37 112 110 373 110 390 0 7 -6 15 -14 18
-10 4 -19 -7 -29 -36z"/>
<path d="M3124 3203 c3 -21 22 -157 42 -303 19 -146 39 -269 43 -273 10 -10
41 2 41 17 0 38 -34 275 -60 416 -16 90 -30 168 -30 172 0 4 -9 8 -21 8 -18 0
-20 -4 -15 -37z"/>
<path d="M3851 3184 c-14 -56 -14 -61 4 -68 10 -4 17 6 25 35 6 22 13 46 16
53 3 8 -4 16 -15 19 -16 4 -21 -3 -30 -39z"/>
<path d="M3908 3073 c7 -3 16 -2 19 1 4 3 -2 6 -13 5 -11 0 -14 -3 -6 -6z"/>
<path d="M2780 2725 c33 -19 49 -19 24 0 -10 8 -26 14 -34 14 -9 0 -4 -6 10
-14z"/>
<path d="M7426 4752 c-6 -11 -19 -12 -83 -12 -18 0 -35 -5 -38 -10 -3 -6 -14
-10 -24 -10 -10 0 -24 -7 -31 -15 -7 -9 -20 -13 -27 -11 -8 3 -27 -1 -44 -9
-16 -9 -31 -15 -35 -14 -3 1 -25 -12 -48 -28 -49 -34 -126 -134 -166 -213 -32
-64 -83 -191 -78 -194 28 -21 148 -83 148 -77 0 4 -18 27 -40 51 -43 47 -46
69 -4 29 28 -25 89 -109 80 -109 -3 0 15 -19 41 -42 61 -56 113 -137 153 -240
111 -280 203 -383 297 -335 54 29 148 139 171 203 22 61 48 191 39 200 -2 3
-21 -12 -41 -33 -20 -21 -63 -66 -96 -99 -47 -48 -60 -68 -60 -92 0 -22 -7
-35 -22 -43 -13 -7 -39 -25 -59 -40 -48 -38 -62 -36 -95 7 -27 34 -27 36 -11
70 10 19 17 41 17 48 0 8 12 25 28 38 28 24 148 197 197 283 l28 50 -30 -28
c-17 -16 -39 -44 -49 -63 -26 -47 -39 -43 -15 5 26 50 67 98 90 106 18 5 46
53 37 62 -8 9 -118 -28 -156 -52 -39 -25 -150 -134 -150 -147 0 -5 -5 -8 -11
-8 -19 0 25 61 80 112 66 60 137 97 201 105 38 4 50 10 54 27 5 18 51 52 126
91 10 5 21 23 24 39 6 31 45 96 58 96 13 0 14 -55 2 -98 -7 -23 -8 -44 -3 -47
13 -8 32 75 25 113 -14 88 -155 251 -262 303 -66 33 -205 52 -218 31z m-329
-494 c84 -90 171 -234 216 -358 25 -67 47 -170 36 -170 -5 0 -9 7 -9 14 0 31
-54 185 -91 260 -51 102 -129 215 -185 266 -24 22 -38 40 -30 40 7 0 35 -24
63 -52z m-68 -23 c88 -96 252 -377 251 -431 -1 -11 -23 27 -50 83 -55 117
-133 240 -209 331 -60 71 -54 84 8 17z"/>
<path d="M2792 4725 c0 -16 2 -22 5 -12 2 9 2 23 0 30 -3 6 -5 -1 -5 -18z"/>
<path d="M6350 4575 c-77 -15 -125 -34 -175 -68 l-37 -25 44 -30 c67 -46 120
-70 205 -93 96 -27 205 -22 256 10 43 27 64 37 113 50 28 7 44 19 52 36 27 59
9 80 -75 92 -26 3 -81 14 -122 24 -85 22 -167 23 -261 4z"/>
<path d="M8445 4451 c-3 -11 -27 -32 -53 -47 -66 -37 -100 -71 -128 -126 -33
-66 -32 -112 6 -155 30 -33 39 -76 20 -88 -5 -3 -10 -15 -10 -26 0 -18 26 -27
55 -18 6 1 19 2 31 2 19 -1 22 7 30 94 8 85 7 100 -9 133 l-19 37 27 62 c15
33 34 61 41 61 7 0 21 -14 30 -32 l16 -31 19 24 c10 13 19 36 19 52 0 22 -4
27 -25 27 -18 0 -25 5 -25 19 0 27 -17 35 -25 12z"/>
<path d="M5783 4422 c3 -4 -7 -18 -21 -32 -13 -14 -22 -20 -18 -13 4 8 0 8
-19 0 -19 -9 -25 -19 -23 -37 3 -22 0 -25 -24 -22 -20 2 -31 -3 -44 -23 -12
-18 -19 -22 -25 -14 -4 6 -14 9 -24 6 -9 -4 -13 -11 -10 -17 3 -5 -1 -10 -9
-10 -9 0 -16 -7 -16 -15 0 -8 -6 -15 -14 -15 -8 0 -23 -13 -33 -30 -9 -16 -20
-30 -24 -30 -3 0 -20 -30 -37 -67 -50 -110 -58 -253 -18 -346 l16 -37 176 2
176 3 23 90 c29 112 80 234 144 345 42 74 47 88 38 113 -5 16 -7 50 -4 77 5
44 4 48 -21 60 -29 14 -196 25 -189 12z"/>
<path d="M5675 4340 c10 -11 20 -20 23 -20 3 0 -3 9 -13 20 -10 11 -20 20 -23
20 -3 0 3 -9 13 -20z"/>
<path d="M8435 4302 c0 -33 -6 -66 -12 -73 -7 -8 -8 -20 -4 -27 10 -17 41 50
41 91 0 18 -6 41 -13 51 -10 14 -12 8 -12 -42z"/>
<path d="M8401 4301 c-13 -23 -14 -51 -3 -51 14 0 32 23 32 41 0 27 -18 32
-29 10z"/>
<path d="M7780 4287 c-19 -13 -48 -32 -63 -41 -27 -17 -28 -18 -12 -36 21 -23
13 -50 -15 -50 -14 0 -28 -16 -49 -57 -16 -32 -50 -89 -74 -128 -33 -49 -43
-73 -36 -82 8 -9 17 -9 35 -1 20 10 29 8 53 -10 l28 -21 29 30 c16 17 45 40
64 51 19 12 47 33 62 46 26 24 27 27 12 43 -15 17 -21 13 -95 -62 -68 -68 -83
-78 -99 -69 -31 16 -34 30 -12 59 11 15 34 55 51 89 17 34 60 93 95 132 39 44
66 83 68 101 5 35 2 35 -42 6z"/>
<path d="M2060 4241 c-63 -32 -146 -75 -184 -95 -39 -20 -83 -36 -102 -36 -18
0 -44 -5 -58 -11 -24 -11 -24 -12 -7 -31 18 -18 23 -16 255 99 130 65 236 121
236 125 0 16 -27 6 -140 -51z"/>
<path d="M1650 4237 c0 -38 53 -121 73 -114 19 6 7 58 -24 104 -36 52 -49 54
-49 10z"/>
<path d="M7914 4230 c-19 -7 -102 -137 -92 -144 1 -2 15 -6 29 -9 25 -6 27 -4
38 38 6 24 21 60 32 80 24 41 23 46 -7 35z"/>
<path d="M5981 4160 l-33 -62 28 -29 29 -28 33 59 32 59 -28 32 -28 31 -33
-62z"/>
<path d="M6766 4204 c-10 -26 -7 -30 30 -48 48 -22 146 -96 212 -160 69 -66
109 -133 167 -281 81 -206 106 -243 190 -287 65 -34 91 -38 143 -23 49 15 127
84 152 135 12 23 10 23 -21 -6 -102 -94 -155 -112 -227 -75 -76 39 -119 97
-168 228 -36 95 -107 232 -150 289 -61 81 -165 164 -271 217 -44 23 -52 24
-57 11z"/>
<path d="M6736 4100 c-10 -28 -15 -58 -11 -68 4 -9 7 -136 6 -282 -1 -146 2
-270 6 -276 5 -6 20 -14 35 -17 14 -4 33 -10 42 -13 14 -5 16 8 16 108 0 158
-19 461 -33 533 -16 79 -36 84 -61 15z"/>
<path d="M5040 4121 c0 -11 -3 -26 -6 -35 -5 -13 2 -16 35 -16 30 0 41 -4 41
-15 0 -12 15 -15 75 -15 l75 0 25 50 25 50 -135 0 c-126 0 -135 -1 -135 -19z"/>
<path d="M6814 4094 c17 -103 26 -265 31 -544 3 -168 7 -340 10 -383 3 -45 1
-75 -5 -72 -5 3 -26 3 -48 -1 l-39 -6 -5 -67 c-4 -49 -13 -84 -36 -127 -17
-32 -34 -74 -37 -92 -8 -37 -103 -137 -160 -168 -46 -24 -60 -84 -20 -84 8 0
20 11 27 24 14 27 126 153 204 232 37 37 54 63 62 97 7 25 30 88 52 139 50
113 61 168 35 168 -12 0 -3 13 29 42 26 22 61 65 78 95 16 29 34 53 40 53 16
0 -40 -91 -84 -136 -34 -36 -39 -46 -36 -81 l3 -40 57 12 c36 7 71 22 94 41
45 36 110 141 131 214 10 33 18 48 21 37 6 -28 -34 -124 -76 -186 -55 -81 -97
-110 -175 -123 -52 -8 -67 -15 -67 -28 0 -21 35 -37 98 -46 60 -8 115 17 162
73 36 44 120 210 120 238 0 11 5 27 11 35 8 11 9 5 6 -25 -6 -57 -84 -209
-135 -267 -41 -45 -42 -48 -20 -48 84 1 246 65 307 123 36 34 104 134 140 206
23 44 22 45 -38 4 -45 -30 -110 -30 -176 1 -78 36 -112 71 -155 159 -43 88
-40 89 -59 -25 -18 -103 -68 -207 -130 -269 -31 -30 -66 -58 -78 -61 -29 -8
-30 8 -2 17 12 4 41 25 64 46 61 56 113 173 135 306 l18 106 -30 79 c-54 140
-124 226 -268 327 l-62 44 6 -39z m606 -747 c0 -18 -54 -125 -79 -157 -36 -46
-29 -16 11 50 21 36 42 77 45 93 6 27 23 38 23 14z"/>
<path d="M2088 4046 c-79 -45 -104 -66 -79 -66 13 0 149 81 162 96 23 27 4 21
-83 -30z"/>
<path d="M6085 4055 c-31 -71 -35 -93 -19 -106 8 -7 20 -22 26 -33 11 -20 10
-20 -8 -6 -10 8 0 -7 23 -35 75 -91 111 -130 115 -125 1 3 17 32 34 65 l31 60
-60 35 c-71 41 -95 71 -112 137 l-13 48 -17 -40z"/>
<path d="M5940 4077 c0 -2 15 -16 33 -33 l32 -29 -29 33 c-28 30 -36 37 -36
29z"/>
<path d="M1788 4058 c-16 -12 -13 -19 36 -83 29 -38 73 -91 98 -117 38 -41 50
-48 83 -48 l39 0 -85 88 c-46 48 -100 106 -119 130 -31 38 -37 42 -52 30z"/>
<path d="M7830 4055 c0 -16 16 -20 24 -6 3 5 -1 11 -9 15 -9 3 -15 0 -15 -9z"/>
<path d="M5013 4031 c-10 -16 -7 -27 23 -67 49 -70 44 -98 -24 -133 -26 -14
-278 -44 -292 -36 -5 3 -24 -2 -42 -11 -24 -13 -59 -18 -123 -18 -128 -1 -141
4 -170 69 -15 35 -30 55 -41 55 -11 0 -14 -5 -10 -16 3 -9 9 -40 12 -70 l7
-55 196 5 c108 2 221 6 251 9 30 3 108 6 173 6 l117 1 0 140 0 140 -33 0 c-21
0 -36 -7 -44 -19z"/>
<path d="M2095 4004 c-72 -43 -68 -40 -61 -53 9 -14 113 48 119 71 3 10 4 18
4 18 -1 0 -29 -16 -62 -36z"/>
<path d="M6638 3953 c-56 -57 -144 -107 -183 -105 -30 2 -34 -1 -53 -47 -33
-81 -48 -159 -32 -174 10 -10 11 -9 5 3 -4 8 13 -5 38 -29 24 -24 47 -42 48
-40 2 1 41 -12 86 -29 45 -18 84 -32 86 -32 2 0 7 57 10 128 4 70 14 168 22
219 9 51 15 104 13 118 l-3 26 -37 -38z"/>
<path d="M8352 3964 c1 -9 9 -19 16 -22 9 -3 13 2 10 14 -1 9 -9 19 -16 22 -9
3 -13 -2 -10 -14z"/>
<path d="M2091 3949 l-35 -21 25 -18 c13 -11 27 -16 30 -12 8 8 23 72 17 72
-2 0 -18 -10 -37 -21z"/>
<path d="M8286 3918 c4 -36 1 -68 -10 -99 -15 -43 -18 -99 -6 -99 3 0 14 7 24
15 19 14 19 15 1 35 -22 24 -9 27 17 4 16 -16 18 -15 23 2 4 11 14 34 23 52
19 39 8 65 -28 70 -17 3 -20 6 -10 12 8 5 22 4 32 -1 26 -14 22 -1 -11 32 -47
46 -62 40 -55 -23z"/>
<path d="M1778 3895 c-71 -38 -74 -41 -44 -47 32 -6 132 55 114 69 -9 6 -31
-1 -70 -22z"/>
<path d="M1306 3887 c48 -82 107 -119 274 -171 134 -43 429 -116 464 -116 23
0 25 5 31 65 4 36 6 68 4 70 -2 1 -69 11 -148 20 -165 18 -418 74 -500 109
-66 29 -135 41 -125 23z"/>
<path d="M1824 3865 c-32 -19 -36 -25 -21 -30 17 -7 73 10 82 25 3 4 -1 13 -8
18 -10 8 -23 5 -53 -13z"/>
<path d="M7481 3851 c-27 -37 -26 -45 3 -37 16 4 32 -1 50 -15 14 -11 31 -17
37 -14 6 5 5 11 -6 18 -8 7 -19 26 -23 42 -11 40 -35 43 -61 6z"/>
<path d="M7567 3873 c-13 -12 -7 -40 13 -58 19 -17 21 -17 40 0 l20 18 -22 24
c-22 23 -39 29 -51 16z"/>
<path d="M1887 3844 c-11 -11 3 -24 25 -24 17 0 18 2 8 15 -13 16 -23 19 -33
9z"/>
<path d="M7740 3790 c0 -11 3 -20 8 -20 4 0 8 -14 8 -32 2 -44 43 -78 94 -78
21 0 59 -9 85 -20 26 -11 65 -20 87 -20 55 0 128 37 128 64 0 12 3 32 7 45 5
21 3 21 -41 -13 -58 -44 -116 -61 -158 -47 -17 6 -70 40 -118 76 -48 36 -90
65 -94 65 -3 0 -6 -9 -6 -20z"/>
<path d="M7435 3777 c-31 -18 -43 -33 -58 -74 -17 -49 -17 -54 -1 -78 9 -14
23 -25 30 -25 18 0 18 9 -2 31 -11 12 -13 25 -8 41 8 22 8 22 13 -6 9 -44 35
-55 64 -28 13 12 28 22 34 22 13 0 23 23 23 54 0 12 4 26 10 32 15 15 -17 54
-43 54 -12 0 -40 -10 -62 -23z"/>
<path d="M7712 3707 c-7 -18 -12 -50 -12 -70 0 -20 -4 -38 -10 -42 -5 -3 -7
-12 -4 -20 3 -8 -6 -35 -20 -61 -14 -26 -26 -49 -26 -52 0 -16 60 55 73 86 35
86 38 91 33 49 -7 -53 -52 -127 -86 -140 -16 -6 -35 -25 -44 -43 -15 -32 -15
-34 12 -52 42 -29 89 -42 156 -42 90 0 128 14 174 64 46 50 65 101 60 165 -3
42 -5 44 -53 63 -105 41 -105 41 -105 3 0 -54 -36 -137 -77 -177 -44 -43 -143
-84 -143 -60 0 4 20 13 44 20 24 6 58 24 76 39 42 35 80 116 80 171 0 38 -2
42 -25 42 -30 0 -75 43 -75 71 0 30 -15 22 -28 -14z m203 -187 c-16 -48 -65
-110 -87 -110 -6 0 5 17 25 39 32 36 43 60 63 136 7 27 8 28 12 7 2 -12 -4
-45 -13 -72z m65 28 c0 -35 -46 -145 -56 -135 -4 3 4 26 16 51 12 25 22 61 23
81 2 44 17 47 17 3z"/>
<path d="M4897 3695 c-4 -9 -7 -36 -7 -61 l0 -44 654 0 653 0 6 52 c2 29 4 54
3 54 0 1 -294 5 -652 9 -608 7 -651 6 -657 -10z"/>
<path d="M4518 3683 l-158 -4 0 -49 0 -50 162 6 c90 3 164 7 165 8 2 1 6 24 9
49 5 37 4 47 -7 45 -8 -1 -85 -4 -171 -5z"/>
<path d="M8137 3643 c-11 -10 -8 -83 3 -83 16 0 27 30 22 61 -4 28 -12 36 -25
22z"/>
<path d="M1825 3599 c38 -74 103 -116 214 -134 l44 -7 -7 32 c-3 18 -6 44 -6
59 0 25 -4 27 -107 49 -60 12 -119 25 -131 28 l-24 7 17 -34z"/>
<path d="M8062 3607 c-28 -9 -32 -14 -27 -36 3 -14 1 -51 -4 -81 l-9 -54 38
41 c37 39 67 113 55 133 -7 12 -9 11 -53 -3z"/>
<path d="M5556 3561 c3 -9 24 -67 45 -129 21 -62 46 -124 55 -138 9 -13 47
-42 83 -63 113 -67 137 -108 120 -209 -15 -97 22 -246 78 -307 48 -53 61 -34
24 36 -40 73 -54 161 -34 211 17 42 19 43 163 53 46 4 96 13 111 21 28 14 79
69 79 85 0 17 -142 80 -218 96 -42 8 -113 29 -157 45 -63 23 -92 29 -133 25
-53 -4 -54 -4 -48 22 20 96 35 172 40 212 8 56 5 58 -125 56 -77 0 -89 -3 -83
-16z"/>
<path d="M4415 3560 c-45 -5 -22 -7 88 -8 92 -1 147 2 147 8 0 11 -136 11
-235 0z"/>
<path d="M4756 3524 c-23 -67 -143 -230 -231 -312 -87 -81 -187 -137 -234
-130 -24 3 -31 0 -35 -16 -3 -12 -26 -56 -50 -100 -25 -43 -43 -82 -41 -86 7
-12 79 -2 160 22 280 81 553 363 619 641 l6 27 -89 0 -89 0 -16 -46z"/>
<path d="M4448 3533 l-86 -4 -4 -48 -3 -49 60 5 c65 5 168 48 200 83 18 20 18
20 -31 18 -27 -1 -88 -4 -136 -5z"/>
<path d="M4555 3388 c28 -29 51 -55 53 -57 1 -2 5 -2 8 2 10 10 -76 107 -94
107 -11 0 1 -18 33 -52z"/>
<path d="M7957 3359 c-27 -27 -47 -49 -45 -50 2 0 49 -4 106 -8 123 -8 142
-21 149 -98 3 -37 -1 -58 -19 -93 l-23 -45 68 68 c78 77 79 87 14 130 -23 15
-76 54 -117 87 -41 32 -77 59 -80 58 -3 0 -27 -22 -53 -49z"/>
<path d="M4340 3343 c0 -17 16 -70 36 -118 31 -74 39 -85 51 -73 12 12 8 28
-28 109 -48 110 -59 125 -59 82z"/>
<path d="M6284 3088 c-5 -7 -8 -59 -6 -115 3 -92 5 -103 22 -103 20 0 34 -40
25 -71 -5 -16 -1 -19 22 -19 27 0 28 1 25 48 -2 26 -9 61 -17 77 -8 17 -25 68
-38 113 -16 60 -26 80 -33 70z"/>
<path d="M7200 3063 c-35 -7 -68 -19 -72 -26 -3 -7 -27 -38 -52 -71 -25 -32
-46 -62 -46 -67 0 -5 22 -9 49 -9 38 0 56 -6 79 -25 28 -23 85 -111 130 -201
19 -37 23 -40 55 -36 28 3 38 0 47 -17 6 -12 15 -19 21 -16 14 9 -23 56 -118
149 -45 45 -87 94 -92 109 -24 62 -10 120 47 195 13 17 23 31 21 31 -2 -1 -33
-8 -69 -16z"/>
<path d="M8072 3006 c-16 -19 -40 -36 -53 -38 -15 -2 -27 -14 -36 -35 -12 -30
-12 -33 6 -33 12 0 38 25 70 70 56 76 60 90 13 36z"/>
<path d="M5950 2976 c-6 -8 -10 -25 -8 -37 3 -19 5 -17 20 14 18 37 11 50 -12
23z"/>
<path d="M7830 2900 c-35 -44 -34 -45 20 -29 56 17 79 69 30 69 -10 0 -33 -18
-50 -40z"/>
<path d="M7920 2905 c-7 -9 -11 -18 -8 -20 8 -9 36 5 42 21 7 19 -18 18 -34
-1z"/>
<path d="M4057 2851 c-69 -90 -180 -193 -307 -284 -14 -9 0 -5 30 9 138 67
293 203 306 269 3 20 5 38 3 39 -2 2 -17 -12 -32 -33z"/>
<path d="M6320 2762 c0 -16 36 -42 58 -42 24 0 31 28 10 34 -38 12 -68 15 -68
8z"/>
<path d="M5964 2654 c3 -9 6 -18 6 -20 0 -2 9 -4 20 -4 18 0 19 2 8 20 -15 24
-43 27 -34 4z"/>
<path d="M6004 2613 c-12 -2 -24 -14 -28 -26 -3 -11 -4 -21 -3 -22 1 0 23 -8
49 -17 26 -9 50 -13 52 -9 4 7 -41 83 -47 80 -1 -1 -12 -4 -23 -6z"/>
<path d="M7426 2584 c-11 -8 -16 -14 -10 -14 13 0 39 18 34 24 -3 2 -14 -2
-24 -10z"/>
<path d="M7442 2562 c-8 -6 -10 -19 -6 -40 5 -27 9 -30 25 -22 10 6 34 10 55
10 32 0 35 2 23 16 -13 16 -62 44 -76 44 -4 0 -14 -4 -21 -8z"/>
</g>
</svg>
